<mxfile host="Electron" modified="2024-07-19T17:41:00.131Z" agent="Mozilla/5.0 (X11; Linux x86_64) AppleWebKit/537.36 (KHTML, like Gecko) draw.io/24.6.4 Chrome/124.0.6367.207 Electron/30.0.6 Safari/537.36" etag="shbvIc6dH4zGjB5V-BH1" version="24.6.4" type="device">
  <diagram name="Page-1" id="LVdLgsCtn19d_F_rj66w">
    <mxGraphModel dx="1195" dy="702" grid="1" gridSize="10" guides="1" tooltips="1" connect="1" arrows="1" fold="1" page="1" pageScale="1" pageWidth="3300" pageHeight="2339" math="0" shadow="0">
      <root>
        <mxCell id="0" />
        <mxCell id="1" parent="0" />
        <mxCell id="To6ip-X8T1CwPGhCpTgV-15" style="edgeStyle=orthogonalEdgeStyle;rounded=0;orthogonalLoop=1;jettySize=auto;html=1;exitX=0.5;exitY=0;exitDx=0;exitDy=0;exitPerimeter=0;entryX=0;entryY=0;entryDx=0;entryDy=50;entryPerimeter=0;fontColor=none;noLabel=1;labelBackgroundColor=none;strokeColor=#CCCC00;strokeWidth=4;endArrow=none;endFill=0;" edge="1" parent="1" source="To6ip-X8T1CwPGhCpTgV-14" target="8pk79dsKpVjvRbbLZ3iy-5">
          <mxGeometry relative="1" as="geometry">
            <Array as="points">
              <mxPoint x="2220" y="500" />
            </Array>
          </mxGeometry>
        </mxCell>
        <mxCell id="To6ip-X8T1CwPGhCpTgV-18" style="edgeStyle=orthogonalEdgeStyle;rounded=0;orthogonalLoop=1;jettySize=auto;html=1;exitX=0;exitY=0;exitDx=0;exitDy=50;exitPerimeter=0;entryX=0.5;entryY=0;entryDx=0;entryDy=0;entryPerimeter=0;fontColor=none;noLabel=1;labelBackgroundColor=none;strokeColor=#CCCC00;strokeWidth=4;endArrow=none;endFill=0;" edge="1" parent="1" source="8pk79dsKpVjvRbbLZ3iy-11" target="To6ip-X8T1CwPGhCpTgV-16">
          <mxGeometry relative="1" as="geometry" />
        </mxCell>
        <mxCell id="To6ip-X8T1CwPGhCpTgV-22" style="edgeStyle=orthogonalEdgeStyle;rounded=0;orthogonalLoop=1;jettySize=auto;html=1;exitX=0.5;exitY=0;exitDx=0;exitDy=0;exitPerimeter=0;entryX=0;entryY=0;entryDx=0;entryDy=50;entryPerimeter=0;strokeWidth=4;endArrow=none;endFill=0;strokeColor=#CCCC00;" edge="1" parent="1" source="To6ip-X8T1CwPGhCpTgV-21" target="8pk79dsKpVjvRbbLZ3iy-5">
          <mxGeometry relative="1" as="geometry">
            <Array as="points">
              <mxPoint x="2260" y="500" />
            </Array>
          </mxGeometry>
        </mxCell>
        <mxCell id="To6ip-X8T1CwPGhCpTgV-23" style="edgeStyle=orthogonalEdgeStyle;rounded=0;orthogonalLoop=1;jettySize=auto;html=1;exitX=0.5;exitY=0;exitDx=0;exitDy=0;exitPerimeter=0;entryX=0;entryY=0;entryDx=0;entryDy=50;entryPerimeter=0;strokeWidth=4;endArrow=none;endFill=0;strokeColor=#CCCC00;" edge="1" parent="1" source="To6ip-X8T1CwPGhCpTgV-20" target="8pk79dsKpVjvRbbLZ3iy-11">
          <mxGeometry relative="1" as="geometry" />
        </mxCell>
        <mxCell id="To6ip-X8T1CwPGhCpTgV-8" style="edgeStyle=orthogonalEdgeStyle;rounded=0;orthogonalLoop=1;jettySize=auto;html=1;exitX=0;exitY=0;exitDx=60;exitDy=0;exitPerimeter=0;entryX=0;entryY=0;entryDx=0;entryDy=40;entryPerimeter=0;strokeWidth=2;endArrow=none;endFill=0;" edge="1" parent="1" source="To6ip-X8T1CwPGhCpTgV-3" target="8pk79dsKpVjvRbbLZ3iy-5">
          <mxGeometry relative="1" as="geometry" />
        </mxCell>
        <mxCell id="To6ip-X8T1CwPGhCpTgV-9" style="edgeStyle=orthogonalEdgeStyle;rounded=0;orthogonalLoop=1;jettySize=auto;html=1;exitX=0;exitY=0;exitDx=20;exitDy=0;exitPerimeter=0;entryX=0;entryY=0;entryDx=0;entryDy=40;entryPerimeter=0;strokeWidth=2;endArrow=none;endFill=0;" edge="1" parent="1" source="To6ip-X8T1CwPGhCpTgV-3" target="8pk79dsKpVjvRbbLZ3iy-11">
          <mxGeometry relative="1" as="geometry" />
        </mxCell>
        <mxCell id="58WdJwZh6YiTNtyLG-hr-2" value="MediaCow Touch 2 &quot;Paris&quot; - CTCL 2021-2024&lt;br style=&quot;font-size: 24px;&quot;&gt;Description: Block diagram of the function of BMEC System Management Embedded Controller&lt;br style=&quot;font-size: 24px;&quot;&gt;&lt;div style=&quot;font-size: 24px;&quot;&gt;Created: July 18, 2024&lt;/div&gt;&lt;div style=&quot;font-size: 24px;&quot;&gt;Modified: July 19, 2024&lt;br&gt;Drawn with diagrams.net/drawio on:&lt;/div&gt;&lt;div style=&quot;font-size: 24px;&quot;&gt;- WBPC1 &quot;Polybutylene Terephthalate&quot;&lt;/div&gt;&lt;div style=&quot;font-size: 24px;&quot;&gt;&lt;br&gt;&lt;/div&gt;" style="text;html=1;align=left;verticalAlign=top;whiteSpace=wrap;rounded=0;fontSize=24;" parent="1" vertex="1">
          <mxGeometry y="2069" width="563.57" height="270" as="geometry" />
        </mxCell>
        <mxCell id="58WdJwZh6YiTNtyLG-hr-4" value="BMEC&lt;br&gt;&lt;span style=&quot;font-weight: normal; font-size: 12px;&quot;&gt;Battery Management&lt;/span&gt;&lt;div style=&quot;font-size: 12px;&quot;&gt;&lt;span style=&quot;font-weight: normal;&quot;&gt;Embedded Controller&lt;/span&gt;&lt;/div&gt;" style="rounded=0;whiteSpace=wrap;html=1;strokeColor=#0000FF;strokeWidth=2;fontStyle=1;fontSize=18;points=[[1,0,0,0,10],[1,0,0,0,20],[1,0,0,0,30],[1,0,0,0,40],[1,0,0,0,50],[1,0,0,0,60],[1,0,0,0,70],[1,0,0,0,80],[1,0,0,0,90],[1,0,0,0,100],[1,0,0,0,110],[1,0,0,0,120],[1,0,0,0,130],[1,0,0,0,140],[1,0,0,0,150],[1,0,0,0,160],[1,0,0,0,170],[1,0,0,0,180],[1,0,0,0,190],[1,0,0,0,200],[1,0,0,0,210],[1,0,0,0,220],[1,0,0,0,230],[0,0,0,0,10],[0,0,0,0,20],[0,0,0,0,30],[0,0,0,0,40],[0,0,0,0,50],[0,0,0,0,60],[0,0,0,0,70],[0,0,0,0,80],[0,0,0,0,90],[0,0,0,0,100],[0,0,0,0,110],[0,0,0,0,120],[0,0,0,0,130],[0,0,0,0,140],[0,0,0,0,150],[0,0,0,0,160],[0,0,0,0,170],[0,0,0,0,180],[0,0,0,0,190],[0,0,0,0,200],[0,0,0,0,210],[0,0,0,0,220],[0,0,0,0,230],[0,0,0,10,0],[0,0,0,20,0],[0,0,0,30,0],[0,0,0,40,0],[0,0,0,50,0],[0,0,0,60,0],[0,0,0,70,0],[0,0,0,80,0],[0,0,0,90,0],[0,0,0,100,0],[0,0,0,110,0],[0,0,0,120,0],[0,0,0,130,0],[0,0,0,140,0],[0,0,0,150,0],[0,0,0,160,0],[0,0,0,170,0],[0,0,0,180,0],[0,0,0,190,0],[0,0,0,200,0],[0,0,0,210,0],[0,0,0,220,0],[0,0,0,230,0],[0,1,0,10,0],[0,1,0,20,0],[0,1,0,30,0],[0,1,0,40,0],[0,1,0,50,0],[0,1,0,60,0],[0,1,0,70,0],[0,1,0,80,0],[0,1,0,90,0],[0,1,0,100,0],[0,1,0,110,0],[0,1,0,120,0],[0,1,0,130,0],[0,1,0,140,0],[0,1,0,150,0],[0,1,0,160,0],[0,1,0,170,0],[0,1,0,180,0],[0,1,0,190,0],[0,1,0,200,0],[0,1,0,210,0],[0,1,0,220,0],[0,1,0,230,0]]&#xa;;" parent="1" vertex="1">
          <mxGeometry x="1510" y="650" width="240" height="240" as="geometry" />
        </mxCell>
        <mxCell id="58WdJwZh6YiTNtyLG-hr-6" value="Legend" style="swimlane;whiteSpace=wrap;html=1;startSize=20;" parent="1" vertex="1">
          <mxGeometry y="1809" width="200" height="260" as="geometry" />
        </mxCell>
        <mxCell id="58WdJwZh6YiTNtyLG-hr-7" value="Component" style="swimlane;whiteSpace=wrap;html=1;startSize=20;" parent="58WdJwZh6YiTNtyLG-hr-6" vertex="1">
          <mxGeometry y="20" width="100" height="120" as="geometry" />
        </mxCell>
        <mxCell id="58WdJwZh6YiTNtyLG-hr-8" value="" style="whiteSpace=wrap;html=1;aspect=fixed;strokeWidth=2;" parent="58WdJwZh6YiTNtyLG-hr-7" vertex="1">
          <mxGeometry x="10" y="30" width="80" height="80" as="geometry" />
        </mxCell>
        <mxCell id="58WdJwZh6YiTNtyLG-hr-9" value="System" style="swimlane;whiteSpace=wrap;html=1;startSize=20;" parent="58WdJwZh6YiTNtyLG-hr-6" vertex="1">
          <mxGeometry x="100" y="20" width="100" height="120" as="geometry" />
        </mxCell>
        <mxCell id="58WdJwZh6YiTNtyLG-hr-10" value="" style="whiteSpace=wrap;html=1;aspect=fixed;strokeColor=#0000FF;strokeWidth=2;" parent="58WdJwZh6YiTNtyLG-hr-9" vertex="1">
          <mxGeometry x="10" y="30" width="80" height="80" as="geometry" />
        </mxCell>
        <mxCell id="58WdJwZh6YiTNtyLG-hr-11" value="Other" style="swimlane;whiteSpace=wrap;html=1;startSize=20;" parent="58WdJwZh6YiTNtyLG-hr-6" vertex="1">
          <mxGeometry y="140" width="100" height="120" as="geometry" />
        </mxCell>
        <mxCell id="58WdJwZh6YiTNtyLG-hr-12" value="" style="whiteSpace=wrap;html=1;aspect=fixed;strokeColor=#000000;strokeWidth=2;dashed=1;" parent="58WdJwZh6YiTNtyLG-hr-11" vertex="1">
          <mxGeometry x="10" y="30" width="80" height="80" as="geometry" />
        </mxCell>
        <mxCell id="58WdJwZh6YiTNtyLG-hr-13" value="Connector" style="swimlane;whiteSpace=wrap;html=1;startSize=20;" parent="58WdJwZh6YiTNtyLG-hr-6" vertex="1">
          <mxGeometry x="100" y="140" width="100" height="120" as="geometry" />
        </mxCell>
        <mxCell id="58WdJwZh6YiTNtyLG-hr-14" value="" style="whiteSpace=wrap;html=1;aspect=fixed;strokeColor=#000000;strokeWidth=2;fillColor=#666666;" parent="58WdJwZh6YiTNtyLG-hr-13" vertex="1">
          <mxGeometry x="10" y="30" width="80" height="80" as="geometry" />
        </mxCell>
        <mxCell id="8pk79dsKpVjvRbbLZ3iy-8" style="edgeStyle=orthogonalEdgeStyle;rounded=0;orthogonalLoop=1;jettySize=auto;html=1;exitX=1;exitY=0;exitDx=0;exitDy=100;exitPerimeter=0;strokeColor=#FF0080;strokeWidth=2;endArrow=none;endFill=0;entryX=0;entryY=0;entryDx=0;entryDy=10;entryPerimeter=0;" parent="1" source="58WdJwZh6YiTNtyLG-hr-16" target="8pk79dsKpVjvRbbLZ3iy-5" edge="1">
          <mxGeometry relative="1" as="geometry" />
        </mxCell>
        <mxCell id="58WdJwZh6YiTNtyLG-hr-16" value="LattePanda Mu" style="rounded=0;whiteSpace=wrap;html=1;fontSize=20;fontStyle=1;points=[[1,0,0,0,10],[1,0,0,0,20],[1,0,0,0,30],[1,0,0,0,40],[1,0,0,0,50],[1,0,0,0,60],[1,0,0,0,70],[1,0,0,0,80],[1,0,0,0,90],[1,0,0,0,100],[1,0,0,0,110],[1,0,0,0,120],[1,0,0,0,130],[1,0,0,0,140],[1,0,0,0,150],[0,0,0,0,10],[0,0,0,0,20],[0,0,0,0,30],[0,0,0,0,40],[0,0,0,0,50],[0,0,0,0,60],[0,0,0,0,70],[0,0,0,0,80],[0,0,0,0,90],[0,0,0,0,100],[0,0,0,0,110],[0,0,0,0,120],[0,0,0,0,130],[0,0,0,0,140],[0,0,0,0,150],[0,0,0,10,0],[0,0,0,20,0],[0,0,0,30,0],[0,0,0,40,0],[0,0,0,50,0],[0,0,0,60,0],[0,0,0,70,0],[0,0,0,80,0],[0,0,0,90,0],[0,0,0,100,0],[0,0,0,110,0],[0,0,0,120,0],[0,0,0,130,0],[0,0,0,140,0],[0,0,0,150,0],[0,0,0,160,0],[0,0,0,170,0],[0,0,0,180,0],[0,0,0,190,0],[0,0,0,200,0],[0,0,0,210,0],[0,0,0,220,0],[0,0,0,230,0],[0,0,0,240,0],[0,0,0,250,0],[0,0,0,260,0],[0,0,0,270,0],[0,0,0,280,0],[0,0,0,290,0],[0,0,0,300,0],[0,0,0,310,0],[0,0,0,320,0],[0,0,0,330,0],[0,0,0,340,0],[0,0,0,350,0],[0,1,0,10,0],[0,1,0,20,0],[0,1,0,30,0],[0,1,0,40,0],[0,1,0,50,0],[0,1,0,60,0],[0,1,0,70,0],[0,1,0,80,0],[0,1,0,90,0],[0,1,0,100,0],[0,1,0,110,0],[0,1,0,120,0],[0,1,0,130,0],[0,1,0,140,0],[0,1,0,150,0],[0,1,0,160,0],[0,1,0,170,0],[0,1,0,180,0],[0,1,0,190,0],[0,1,0,200,0],[0,1,0,210,0],[0,1,0,220,0],[0,1,0,230,0],[0,1,0,240,0],[0,1,0,250,0],[0,1,0,260,0],[0,1,0,270,0],[0,1,0,280,0],[0,1,0,290,0],[0,1,0,300,0],[0,1,0,310,0],[0,1,0,320,0],[0,1,0,330,0],[0,1,0,340,0],[0,1,0,350,0]]&#xa;;strokeColor=#0000FF;dashed=1;strokeWidth=2;" parent="1" vertex="1">
          <mxGeometry x="1440" y="360" width="360" height="160" as="geometry" />
        </mxCell>
        <mxCell id="ly0RP6SBTsQie0t8a5br-2" style="edgeStyle=orthogonalEdgeStyle;rounded=0;orthogonalLoop=1;jettySize=auto;html=1;exitX=0;exitY=1;exitDx=180;exitDy=0;exitPerimeter=0;entryX=0;entryY=0;entryDx=110;entryDy=0;entryPerimeter=0;strokeWidth=2;endArrow=none;endFill=0;strokeColor=#00CC66;" parent="1" source="58WdJwZh6YiTNtyLG-hr-16" target="58WdJwZh6YiTNtyLG-hr-4" edge="1">
          <mxGeometry relative="1" as="geometry" />
        </mxCell>
        <mxCell id="ly0RP6SBTsQie0t8a5br-3" style="edgeStyle=orthogonalEdgeStyle;rounded=0;orthogonalLoop=1;jettySize=auto;html=1;exitX=0;exitY=1;exitDx=220;exitDy=0;exitPerimeter=0;entryX=0;entryY=0;entryDx=150;entryDy=0;entryPerimeter=0;strokeWidth=2;endArrow=none;endFill=0;strokeColor=#66CC00;" parent="1" source="58WdJwZh6YiTNtyLG-hr-16" target="58WdJwZh6YiTNtyLG-hr-4" edge="1">
          <mxGeometry relative="1" as="geometry" />
        </mxCell>
        <mxCell id="ly0RP6SBTsQie0t8a5br-5" value="SMBus" style="text;html=1;align=center;verticalAlign=middle;whiteSpace=wrap;rounded=0;fontSize=14;fontColor=#66CC00;" parent="1" vertex="1">
          <mxGeometry x="1660" y="560" width="60" height="30" as="geometry" />
        </mxCell>
        <mxCell id="ly0RP6SBTsQie0t8a5br-6" value="SMLink" style="text;html=1;align=center;verticalAlign=middle;whiteSpace=wrap;rounded=0;fontSize=14;fontColor=#00CC66;" parent="1" vertex="1">
          <mxGeometry x="1560" y="560" width="60" height="30" as="geometry" />
        </mxCell>
        <mxCell id="8pk79dsKpVjvRbbLZ3iy-1" value="STM32L4 &lt;b&gt;TBD&lt;/b&gt;" style="text;html=1;align=center;verticalAlign=middle;whiteSpace=wrap;rounded=0;" parent="1" vertex="1">
          <mxGeometry x="1440" y="1000" width="90" height="20" as="geometry" />
        </mxCell>
        <mxCell id="8pk79dsKpVjvRbbLZ3iy-3" value="HP FM08-compatible battery" style="rounded=0;whiteSpace=wrap;html=1;strokeColor=#000000;strokeWidth=2;fontStyle=1;fontSize=16;points=[[1,0,0,0,10],[1,0,0,0,20],[1,0,0,0,30],[1,0,0,0,40],[1,0,0,0,50],[1,0,0,0,60],[1,0,0,0,70],[1,0,0,0,80],[1,0,0,0,90],[1,0,0,0,100],[1,0,0,0,110],[1,0,0,0,120],[1,0,0,0,130],[1,0,0,0,140],[1,0,0,0,150],[1,0,0,0,160],[1,0,0,0,170],[1,0,0,0,180],[1,0,0,0,190],[0,0,0,0,10],[0,0,0,0,20],[0,0,0,0,30],[0,0,0,0,40],[0,0,0,0,50],[0,0,0,0,60],[0,0,0,0,70],[0,0,0,0,80],[0,0,0,0,90],[0,0,0,0,100],[0,0,0,0,110],[0,0,0,0,120],[0,0,0,0,130],[0,0,0,0,140],[0,0,0,0,150],[0,0,0,0,160],[0,0,0,0,170],[0,0,0,0,180],[0,0,0,0,190],[0,0,0,10,0],[0,0,0,20,0],[0,0,0,30,0],[0,0,0,40,0],[0,0,0,50,0],[0,0,0,60,0],[0,0,0,70,0],[0,0,0,80,0],[0,0,0,90,0],[0,0,0,100,0],[0,0,0,110,0],[0,0,0,120,0],[0,0,0,130,0],[0,0,0,140,0],[0,0,0,150,0],[0,0,0,160,0],[0,0,0,170,0],[0,0,0,180,0],[0,0,0,190,0],[0,0,0,200,0],[0,0,0,210,0],[0,0,0,220,0],[0,0,0,230,0],[0,1,0,10,0],[0,1,0,20,0],[0,1,0,30,0],[0,1,0,40,0],[0,1,0,50,0],[0,1,0,60,0],[0,1,0,70,0],[0,1,0,80,0],[0,1,0,90,0],[0,1,0,100,0],[0,1,0,110,0],[0,1,0,120,0],[0,1,0,130,0],[0,1,0,140,0],[0,1,0,150,0],[0,1,0,160,0],[0,1,0,170,0],[0,1,0,180,0],[0,1,0,190,0],[0,1,0,200,0],[0,1,0,210,0],[0,1,0,220,0],[0,1,0,230,0]]&#xa;;" parent="1" vertex="1">
          <mxGeometry x="2160" y="800" width="240" height="200" as="geometry" />
        </mxCell>
        <mxCell id="8pk79dsKpVjvRbbLZ3iy-5" value="USB Type-C" style="rounded=0;whiteSpace=wrap;html=1;points=[[1,0,0,0,10],[1,0,0,0,20],[1,0,0,0,30],[1,0,0,0,40],[1,0,0,0,50],[0,0,0,0,10],[0,0,0,0,20],[0,0,0,0,30],[0,0,0,0,40],[0,0,0,0,50],[0,0,0,10,0],[0,0,0,20,0],[0,0,0,30,0],[0,1,0,10,0],[0,1,0,20,0],[0,1,0,30,0]]&#xa;;strokeWidth=2;fillColor=#666666;fontColor=#FFFFFF;" parent="1" vertex="1">
          <mxGeometry x="2280" y="450" width="40" height="60" as="geometry" />
        </mxCell>
        <mxCell id="8pk79dsKpVjvRbbLZ3iy-7" style="edgeStyle=orthogonalEdgeStyle;rounded=0;orthogonalLoop=1;jettySize=auto;html=1;exitX=0;exitY=0;exitDx=0;exitDy=10;entryX=1;entryY=0;entryDx=0;entryDy=20;entryPerimeter=0;strokeColor=#FF0080;strokeWidth=2;endArrow=none;endFill=0;exitPerimeter=0;" parent="1" source="8pk79dsKpVjvRbbLZ3iy-11" target="58WdJwZh6YiTNtyLG-hr-16" edge="1">
          <mxGeometry relative="1" as="geometry">
            <mxPoint x="2280" y="400" as="sourcePoint" />
          </mxGeometry>
        </mxCell>
        <mxCell id="8pk79dsKpVjvRbbLZ3iy-11" value="USB Type-C" style="rounded=0;whiteSpace=wrap;html=1;points=[[1,0,0,0,10],[1,0,0,0,20],[1,0,0,0,30],[1,0,0,0,40],[1,0,0,0,50],[0,0,0,0,10],[0,0,0,0,20],[0,0,0,0,30],[0,0,0,0,40],[0,0,0,0,50],[0,0,0,10,0],[0,0,0,20,0],[0,0,0,30,0],[0,1,0,10,0],[0,1,0,20,0],[0,1,0,30,0]]&#xa;;strokeWidth=2;fillColor=#666666;fontColor=#FFFFFF;" parent="1" vertex="1">
          <mxGeometry x="2280" y="370" width="40" height="60" as="geometry" />
        </mxCell>
        <mxCell id="8pk79dsKpVjvRbbLZ3iy-15" style="edgeStyle=orthogonalEdgeStyle;rounded=0;orthogonalLoop=1;jettySize=auto;html=1;exitX=0;exitY=0;exitDx=0;exitDy=20;exitPerimeter=0;entryX=1;entryY=0;entryDx=0;entryDy=110;entryPerimeter=0;fontFamily=Helvetica;fontSize=12;fontColor=default;strokeWidth=2;strokeColor=#FF00FF;endArrow=none;endFill=0;" parent="1" source="8pk79dsKpVjvRbbLZ3iy-5" target="58WdJwZh6YiTNtyLG-hr-16" edge="1">
          <mxGeometry relative="1" as="geometry" />
        </mxCell>
        <mxCell id="8pk79dsKpVjvRbbLZ3iy-16" style="edgeStyle=orthogonalEdgeStyle;rounded=0;orthogonalLoop=1;jettySize=auto;html=1;exitX=1;exitY=0;exitDx=0;exitDy=30;exitPerimeter=0;entryX=0;entryY=0;entryDx=0;entryDy=20;entryPerimeter=0;fontFamily=Helvetica;fontSize=12;fontColor=default;strokeWidth=2;strokeColor=#FF00FF;endArrow=none;endFill=0;" parent="1" source="58WdJwZh6YiTNtyLG-hr-16" target="8pk79dsKpVjvRbbLZ3iy-11" edge="1">
          <mxGeometry relative="1" as="geometry" />
        </mxCell>
        <mxCell id="To6ip-X8T1CwPGhCpTgV-2" value="USB 3.2 (DP alt)&amp;nbsp;&lt;font color=&quot;#000000&quot;&gt;+&lt;/font&gt; &lt;font color=&quot;#ff00ff&quot;&gt;USB 2.0 &lt;/font&gt;&lt;font color=&quot;#000000&quot;&gt;+&lt;/font&gt;&lt;font color=&quot;#ff00ff&quot;&gt; &lt;/font&gt;&lt;font color=&quot;#7f00ff&quot;&gt;SBU&lt;/font&gt;" style="text;html=1;align=center;verticalAlign=middle;whiteSpace=wrap;rounded=0;fontSize=14;fontColor=#FF0080;" vertex="1" parent="1">
          <mxGeometry x="1800" y="440" width="220" height="20" as="geometry" />
        </mxCell>
        <mxCell id="To6ip-X8T1CwPGhCpTgV-3" value="USB PD Controller" style="rounded=0;whiteSpace=wrap;html=1;points=[[1,0,0,0,10],[1,0,0,0,20],[1,0,0,0,30],[1,0,0,0,40],[1,0,0,0,50],[1,0,0,0,60],[1,0,0,0,70],[0,0,0,0,10],[0,0,0,0,20],[0,0,0,0,30],[0,0,0,0,40],[0,0,0,0,50],[0,0,0,0,60],[0,0,0,0,70],[0,0,0,10,0],[0,0,0,20,0],[0,0,0,30,0],[0,0,0,40,0],[0,0,0,50,0],[0,0,0,60,0],[0,0,0,70,0],[0,1,0,10,0],[0,1,0,20,0],[0,1,0,30,0],[0,1,0,40,0],[0,1,0,50,0],[0,1,0,60,0],[0,1,0,70,0]];strokeWidth=2;" vertex="1" parent="1">
          <mxGeometry x="2000" y="520" width="80" height="80" as="geometry" />
        </mxCell>
        <mxCell id="To6ip-X8T1CwPGhCpTgV-4" style="edgeStyle=orthogonalEdgeStyle;rounded=0;orthogonalLoop=1;jettySize=auto;html=1;exitX=0;exitY=0;exitDx=0;exitDy=30;exitPerimeter=0;entryX=1;entryY=0;entryDx=0;entryDy=120;entryPerimeter=0;fontFamily=Helvetica;fontSize=12;fontColor=default;strokeWidth=2;strokeColor=#7F00FF;endArrow=none;endFill=0;" edge="1" parent="1" source="8pk79dsKpVjvRbbLZ3iy-5" target="58WdJwZh6YiTNtyLG-hr-16">
          <mxGeometry relative="1" as="geometry">
            <mxPoint x="2290" y="500" as="sourcePoint" />
            <mxPoint x="1810" y="500" as="targetPoint" />
          </mxGeometry>
        </mxCell>
        <mxCell id="To6ip-X8T1CwPGhCpTgV-5" style="edgeStyle=orthogonalEdgeStyle;rounded=0;orthogonalLoop=1;jettySize=auto;html=1;fontFamily=Helvetica;fontSize=12;fontColor=default;strokeWidth=2;strokeColor=#7F00FF;endArrow=none;endFill=0;entryX=1;entryY=0;entryDx=0;entryDy=40;entryPerimeter=0;exitX=0;exitY=0;exitDx=0;exitDy=30;exitPerimeter=0;" edge="1" parent="1" source="8pk79dsKpVjvRbbLZ3iy-11" target="58WdJwZh6YiTNtyLG-hr-16">
          <mxGeometry relative="1" as="geometry">
            <mxPoint x="2250" y="400" as="sourcePoint" />
            <mxPoint x="1840" y="400" as="targetPoint" />
            <Array as="points">
              <mxPoint x="2040" y="400" />
              <mxPoint x="2040" y="400" />
            </Array>
          </mxGeometry>
        </mxCell>
        <mxCell id="To6ip-X8T1CwPGhCpTgV-6" value="USB 3.2 (DP alt)&amp;nbsp;&lt;font color=&quot;#000000&quot;&gt;+&lt;/font&gt; &lt;font color=&quot;#ff00ff&quot;&gt;USB 2.0 &lt;/font&gt;&lt;font color=&quot;#000000&quot;&gt;+&lt;/font&gt;&lt;font color=&quot;#ff00ff&quot;&gt; &lt;/font&gt;&lt;font color=&quot;#7f00ff&quot;&gt;SBU&lt;/font&gt;" style="text;html=1;align=center;verticalAlign=middle;whiteSpace=wrap;rounded=0;fontSize=14;fontColor=#FF0080;" vertex="1" parent="1">
          <mxGeometry x="1800" y="360" width="220" height="20" as="geometry" />
        </mxCell>
        <mxCell id="To6ip-X8T1CwPGhCpTgV-10" value="CC" style="text;html=1;align=center;verticalAlign=middle;whiteSpace=wrap;rounded=0;" vertex="1" parent="1">
          <mxGeometry x="2020" y="500" width="30" height="20" as="geometry" />
        </mxCell>
        <mxCell id="To6ip-X8T1CwPGhCpTgV-11" value="CC" style="text;html=1;align=center;verticalAlign=middle;whiteSpace=wrap;rounded=0;" vertex="1" parent="1">
          <mxGeometry x="2060" y="500" width="30" height="20" as="geometry" />
        </mxCell>
        <mxCell id="To6ip-X8T1CwPGhCpTgV-13" value="CYPD4225" style="text;html=1;align=center;verticalAlign=middle;whiteSpace=wrap;rounded=0;" vertex="1" parent="1">
          <mxGeometry x="1940" y="500" width="80" height="20" as="geometry" />
        </mxCell>
        <mxCell id="To6ip-X8T1CwPGhCpTgV-14" value="MOSFETs" style="rounded=0;whiteSpace=wrap;html=1;points=[[0,0.5,0,0,0],[0.5,0,0,0,0],[0.5,1,0,0,0]];strokeWidth=2;fontSize=8;" vertex="1" parent="1">
          <mxGeometry x="2200" y="560" width="40" height="20" as="geometry" />
        </mxCell>
        <mxCell id="To6ip-X8T1CwPGhCpTgV-16" value="MOSFETs" style="rounded=0;whiteSpace=wrap;html=1;points=[[0,0.5,0,0,0],[0.5,0,0,0,0],[0.5,1,0,0,0]];strokeWidth=2;fontSize=8;" vertex="1" parent="1">
          <mxGeometry x="2120" y="520" width="40" height="20" as="geometry" />
        </mxCell>
        <mxCell id="To6ip-X8T1CwPGhCpTgV-20" value="MOSFETs" style="rounded=0;whiteSpace=wrap;html=1;points=[[0,0.5,0,0,0],[0.5,0,0,0,0],[0.5,1,0,0,0]];strokeWidth=2;fontSize=8;" vertex="1" parent="1">
          <mxGeometry x="2160" y="540" width="40" height="20" as="geometry" />
        </mxCell>
        <mxCell id="To6ip-X8T1CwPGhCpTgV-21" value="MOSFETs" style="rounded=0;whiteSpace=wrap;html=1;points=[[0,0.5,0,0,0],[0.5,0,0,0,0],[0.5,1,0,0,0]];strokeWidth=2;fontSize=8;" vertex="1" parent="1">
          <mxGeometry x="2240" y="580" width="40" height="20" as="geometry" />
        </mxCell>
        <mxCell id="To6ip-X8T1CwPGhCpTgV-36" value="TCP0" style="text;html=1;align=center;verticalAlign=middle;whiteSpace=wrap;rounded=0;" vertex="1" parent="1">
          <mxGeometry x="1800" y="400" width="40" height="20" as="geometry" />
        </mxCell>
        <mxCell id="To6ip-X8T1CwPGhCpTgV-37" value="TCP1" style="text;html=1;align=center;verticalAlign=middle;whiteSpace=wrap;rounded=0;" vertex="1" parent="1">
          <mxGeometry x="1800" y="480" width="40" height="20" as="geometry" />
        </mxCell>
        <mxCell id="To6ip-X8T1CwPGhCpTgV-48" style="edgeStyle=orthogonalEdgeStyle;rounded=0;orthogonalLoop=1;jettySize=auto;html=1;exitX=0;exitY=0.5;exitDx=0;exitDy=0;exitPerimeter=0;entryX=1;entryY=0;entryDx=0;entryDy=10;entryPerimeter=0;" edge="1" parent="1" source="To6ip-X8T1CwPGhCpTgV-16" target="To6ip-X8T1CwPGhCpTgV-3">
          <mxGeometry relative="1" as="geometry" />
        </mxCell>
        <mxCell id="To6ip-X8T1CwPGhCpTgV-49" style="edgeStyle=orthogonalEdgeStyle;rounded=0;orthogonalLoop=1;jettySize=auto;html=1;exitX=1;exitY=0;exitDx=0;exitDy=30;exitPerimeter=0;entryX=0;entryY=0.5;entryDx=0;entryDy=0;entryPerimeter=0;" edge="1" parent="1" source="To6ip-X8T1CwPGhCpTgV-3" target="To6ip-X8T1CwPGhCpTgV-20">
          <mxGeometry relative="1" as="geometry" />
        </mxCell>
        <mxCell id="To6ip-X8T1CwPGhCpTgV-50" style="edgeStyle=orthogonalEdgeStyle;rounded=0;orthogonalLoop=1;jettySize=auto;html=1;exitX=1;exitY=0;exitDx=0;exitDy=50;exitPerimeter=0;entryX=0;entryY=0.5;entryDx=0;entryDy=0;entryPerimeter=0;" edge="1" parent="1" source="To6ip-X8T1CwPGhCpTgV-3" target="To6ip-X8T1CwPGhCpTgV-14">
          <mxGeometry relative="1" as="geometry" />
        </mxCell>
        <mxCell id="To6ip-X8T1CwPGhCpTgV-51" style="edgeStyle=orthogonalEdgeStyle;rounded=0;orthogonalLoop=1;jettySize=auto;html=1;exitX=1;exitY=0;exitDx=0;exitDy=70;exitPerimeter=0;entryX=0;entryY=0.5;entryDx=0;entryDy=0;entryPerimeter=0;" edge="1" parent="1" source="To6ip-X8T1CwPGhCpTgV-3" target="To6ip-X8T1CwPGhCpTgV-21">
          <mxGeometry relative="1" as="geometry" />
        </mxCell>
        <mxCell id="To6ip-X8T1CwPGhCpTgV-52" value="Battery Charger" style="rounded=0;whiteSpace=wrap;html=1;points=[[1,0,0,0,10],[1,0,0,0,20],[1,0,0,0,30],[1,0,0,0,40],[1,0,0,0,50],[1,0,0,0,60],[1,0,0,0,70],[0,0,0,0,10],[0,0,0,0,20],[0,0,0,0,30],[0,0,0,0,40],[0,0,0,0,50],[0,0,0,0,60],[0,0,0,0,70],[0,0,0,10,0],[0,0,0,20,0],[0,0,0,30,0],[0,0,0,40,0],[0,0,0,50,0],[0,0,0,60,0],[0,0,0,70,0],[0,1,0,10,0],[0,1,0,20,0],[0,1,0,30,0],[0,1,0,40,0],[0,1,0,50,0],[0,1,0,60,0],[0,1,0,70,0]];strokeWidth=2;" vertex="1" parent="1">
          <mxGeometry x="2000" y="800" width="80" height="80" as="geometry" />
        </mxCell>
        <mxCell id="To6ip-X8T1CwPGhCpTgV-54" value="I2C" style="text;html=1;align=center;verticalAlign=middle;whiteSpace=wrap;rounded=0;fontSize=14;fontColor=#66CC00;" vertex="1" parent="1">
          <mxGeometry x="2010" y="600" width="60" height="30" as="geometry" />
        </mxCell>
        <mxCell id="To6ip-X8T1CwPGhCpTgV-55" style="edgeStyle=orthogonalEdgeStyle;rounded=0;orthogonalLoop=1;jettySize=auto;html=1;exitX=0;exitY=1;exitDx=220;exitDy=0;exitPerimeter=0;entryX=0;entryY=0;entryDx=0;entryDy=160;entryPerimeter=0;strokeColor=#66CC00;strokeWidth=2;endArrow=none;endFill=0;" edge="1" parent="1" source="58WdJwZh6YiTNtyLG-hr-16" target="8pk79dsKpVjvRbbLZ3iy-3">
          <mxGeometry relative="1" as="geometry">
            <Array as="points">
              <mxPoint x="1660" y="620" />
              <mxPoint x="1850" y="620" />
              <mxPoint x="1850" y="960" />
            </Array>
          </mxGeometry>
        </mxCell>
      </root>
    </mxGraphModel>
  </diagram>
</mxfile>
